<?xml version="1.0" encoding="UTF-8" standalone="no"?><!DOCTYPE svg PUBLIC "-//W3C//DTD SVG 1.1//EN" "http://www.w3.org/Graphics/SVG/1.1/DTD/svg11.dtd"><svg width="100%" height="100%" viewBox="0 0 417 417" version="1.1" xmlns="http://www.w3.org/2000/svg" xmlns:xlink="http://www.w3.org/1999/xlink" xml:space="preserve" xmlns:serif="http://www.serif.com/" style="fill-rule:evenodd;clip-rule:evenodd;stroke-linejoin:round;stroke-miterlimit:2;"><path d="M81.628,396.176c-29.247,-5.99 -55.521,-35.989 -61.301,-65.263c-10.217,-51.743 -10.912,-193.443 -0,-245.193c6.359,-30.154 35.284,-59.043 65.475,-65.307c52.461,-10.884 197.54,-10.203 249.291,0c28.321,5.584 55.562,32.931 61.214,61.223c10.202,51.069 9.55,192.769 -0,245.193c-5.373,29.494 -28.009,62.892 -57.302,69.347c-52.446,11.558 -204.264,10.877 -257.377,0Z" style="fill:#2c99ff;"/><path d="M84.108,137.54c7.362,-24.846 31.714,-46.352 56.715,-53.171c32.493,-8.861 106.341,-8.27 138.243,0c23.468,6.085 46.898,26.208 53.17,49.626c8.862,33.084 8.271,115.793 0,148.877c-5.673,22.696 -26.93,43.952 -49.625,49.626c-33.084,8.271 -115.794,9.453 -148.877,-0c-24.154,-6.901 -43.429,-32.371 -49.626,-56.715c-8.271,-32.493 -9.453,-106.341 -0,-138.243Z" style="fill:#fff;"/><path d="M108.921,148.174l-0,124.064c-0,0 6.504,34.255 38.991,35.447l124.065,0c-0,0 29.641,-1.511 35.447,-35.447l-0,-127.609c-0,0 -0.658,-30.508 -38.992,-35.447l-120.52,0c0,0 -35.798,3.225 -38.991,38.992Z" style="fill:#2c99ff;"/><circle id="white-circle-small" serif:id="white circle small" cx="275.521" cy="141.085" r="14.179" style="fill:#fff;"/><ellipse id="white-circle-big" serif:id="white circle big" cx="208.172" cy="208.434" rx="70.894" ry="67.349" style="fill:#fff;"/><circle cx="208.172" cy="208.434" r="42.536" style="fill:#2c99ff;"/></svg>