<?xml version="1.0" encoding="UTF-8" standalone="no"?><!DOCTYPE svg PUBLIC "-//W3C//DTD SVG 1.1//EN" "http://www.w3.org/Graphics/SVG/1.1/DTD/svg11.dtd"><svg width="100%" height="100%" viewBox="0 0 417 417" version="1.1" xmlns="http://www.w3.org/2000/svg" xmlns:xlink="http://www.w3.org/1999/xlink" xml:space="preserve" xmlns:serif="http://www.serif.com/" style="fill-rule:evenodd;clip-rule:evenodd;stroke-linejoin:round;stroke-miterlimit:2;"><path d="M76.243,404.152c-30.493,-6.245 -57.885,-37.52 -63.912,-68.037c-10.652,-53.943 -11.377,-201.666 0,-255.616c6.63,-31.436 36.787,-61.553 68.264,-68.083c54.695,-11.347 205.953,-10.637 259.908,0c29.527,5.822 57.929,34.33 63.821,63.825c10.637,53.24 9.957,200.964 0,255.616c-5.601,30.748 -29.201,65.565 -59.741,72.295c-54.681,12.049 -212.965,11.339 -268.34,-0Z" style="fill:#2c99ff;"/><path d="M62.5,125c8.654,-29.206 37.279,-54.485 66.667,-62.5c38.194,-10.417 125,-9.722 162.5,0c27.585,7.152 55.126,30.806 62.5,58.333c10.416,38.889 9.722,136.111 -0,175c-6.67,26.678 -31.656,51.664 -58.334,58.334c-38.889,9.722 -136.111,11.111 -175,-0c-28.392,-8.112 -51.049,-38.051 -58.333,-66.667c-9.722,-38.194 -11.111,-125 -0,-162.5Z" style="fill:#fff;"/><path d="M91.667,137.5l-0,145.833c-0,0 7.645,40.265 45.833,41.667l145.833,0c0,0 34.843,-1.776 41.667,-41.667l0,-150c0,0 -0.773,-35.861 -45.833,-41.666l-141.667,-0c-0,-0 -42.08,3.79 -45.833,45.833Z" style="fill:#2c99ff;"/><circle id="white-circle-small" serif:id="white circle small" cx="287.5" cy="129.167" r="16.667" style="fill:#fff;"/><ellipse id="white-circle-big" serif:id="white circle big" cx="208.333" cy="208.333" rx="83.333" ry="79.167" style="fill:#fff;"/><circle cx="208.333" cy="208.333" r="50" style="fill:#2c99ff;"/></svg>